# xmcd CD database file
#
# Track frame offsets:
#	150
#	19091
#	36715
#	53348
#	67158
#	87319
#	102483
#	115458
#	133254
#	148661
#	164371
#	180030
#	197725
#	217641
#	231512
#	248236
#	264257
#	284589
#	306346
#
# Disc length: 4407 seconds
#
# Revision: 5
# Processed by: cddbd v1.5.1PL0 Copyright (c) Steve Scherf et al.
# Submitted via: CDex 1.51
#
DISCID=1d113513
DTITLE=Various Country - Splendid Isolation
DYEAR=1900
DGENRE=Country
TTITLE0=Stacey Earle and Mark Stuart - Lay Down
TTITLE1=Steve Earle - Jerusalem
TTITLE2=Jason Ringenberg - She Hung The Moon (Until It Died)
TTITLE3=Matthew Sweet - Push The Feelings
TTITLE4=Camper Van Beethoven - 51-7
TTITLE5=You Am I - Who Put The Devil In You
TTITLE6=The Bellrays - Thunder All The Time
TTITLE7=Steve Wynn and The Miracle 3 - Candy Machine
TTITLE8=Cracker - Fluffy Lucy
TTITLE9=The Jayhawks - Say Your Prayers
TTITLE10=Jet Lag - Rain
TTITLE11=Josh Rouse - Princess In The Porch
TTITLE12=Ivy - Edge Of The Ocean
TTITLE13=Kraig Jarret Johnson - Song For Everyone
TTITLE14=The Brahmas - Faces In Blood
TTITLE15=The City Lights - What You Gonna Do?
TTITLE16=Gigolo Aunts - Even Though (The One Before The Last)
TTITLE17=Jonny Kaplin and The Lazy Stars - High Desert Love Song
TTITLE18=Matt Sharp - Goodbye West Coast
EXTD=
EXTT0=
EXTT1=
EXTT2=
EXTT3=
EXTT4=
EXTT5=
EXTT6=
EXTT7=
EXTT8=
EXTT9=
EXTT10=
EXTT11=
EXTT12=
EXTT13=
EXTT14=
EXTT15=
EXTT16=
EXTT17=
EXTT18=
PLAYORDER=
